<?xml version="1.0" encoding="utf-8"?>
<!-- Generator: Adobe Illustrator 28.0.0, SVG Export Plug-In . SVG Version: 6.00 Build 0)  -->
<svg version="1.1" id="Layer_1" xmlns="http://www.w3.org/2000/svg" xmlns:xlink="http://www.w3.org/1999/xlink" x="0px" y="0px"
	 viewBox="0 0 700 166" style="enable-background:new 0 0 700 166;" xml:space="preserve">
<style type="text/css">
	.st0{clip-path:url(#SVGID_00000031203806993549434850000012160096841186938273_);}
	.st1{fill-rule:evenodd;clip-rule:evenodd;fill:#FFFFFF;}
	.st2{fill-rule:evenodd;clip-rule:evenodd;fill:#E40046;}
	.st3{clip-path:url(#SVGID_00000119099646213372712760000003556814981611980440_);}
	.st4{clip-path:url(#SVGID_00000020364891817510194190000010918920565214349970_);}
	.st5{fill-rule:evenodd;clip-rule:evenodd;}
	.st6{clip-path:url(#SVGID_00000005254805087802412570000011837714668433513387_);}
</style>
<g>
	<defs>
		<rect id="SVGID_1_" width="700" height="165.7"/>
	</defs>
	<clipPath id="SVGID_00000108307368670289736500000000966910945514440345_">
		<use xlink:href="#SVGID_1_"  style="overflow:visible;"/>
	</clipPath>
	<g style="clip-path:url(#SVGID_00000108307368670289736500000000966910945514440345_);">
		<path class="st1" d="M395.5,62.6c-1.5-1.6-3.2-2.9-5-3.8c-3.2-1.6-6.9-2.4-11.1-2.4c-4.4,0-8.4,0.9-11.8,2.6
			c-3.4,1.7-6.3,4.1-8.6,7c-2.3,2.9-4,6.3-5.2,10c-1.2,3.7-1.7,7.6-1.7,11.6c0,4.2,0.5,8.2,1.5,12c1,3.9,2.6,7.3,4.8,10.2
			c2.2,2.9,5.1,5.3,8.6,7c3.4,1.7,7.6,2.5,12.3,2.5c3.8,0,7.6-0.8,11-2.4c2-0.9,3.7-2.1,5.2-3.5v2.8c0.1,3.8-0.8,6.9-2.7,9.3
			c-1.8,2.3-4.6,3.4-8.6,3.4c-2.6,0-4.9-0.5-6.8-1.6c-1.8-0.9-2.9-2.7-3.6-5.2l-0.3-1.4H354l0.1,1.9c0.3,3.7,1.3,6.9,3.1,9.6
			c1.8,2.6,4.1,4.8,6.8,6.4c2.6,1.6,5.6,2.8,8.8,3.6c3.2,0.8,6.3,1.1,9.3,1.1c7,0,12.8-1,17.1-2.9c4.3-1.9,7.6-4.4,10-7.2
			c2.3-2.9,3.8-6,4.6-9.3c0.7-3.2,1-6.1,1-8.5V58.1h-19.1V62.6z M392.8,77.1c1,1.5,1.6,3.2,2.1,5.2c0.4,2,0.6,4.3,0.6,6.6
			c0,2-0.3,3.9-0.8,5.6c-0.5,1.7-1.3,3.3-2.3,4.6c-1,1.3-2.2,2.4-3.8,3.2c-1.5,0.8-3.3,1.2-5.2,1.2c-2.2,0-4-0.4-5.3-1.3
			c-1.4-0.9-2.6-2.1-3.5-3.6c-0.9-1.5-1.6-3.2-1.9-5.1c-0.4-2-0.6-4-0.6-6c0-2.1,0.2-4.1,0.7-5.9c0.4-1.8,1.2-3.4,2.1-4.8
			c0.9-1.3,2.1-2.4,3.5-3.2c1.4-0.8,3.1-1.1,5-1.1c2.4,0,4.3,0.4,5.8,1.3C390.7,74.5,391.9,75.6,392.8,77.1z"/>
		<path class="st1" d="M543,66.9c-2.4-3.1-5.4-5.6-9-7.5c-3.6-1.9-8-2.9-12.9-2.9c-3.9,0-7.6,0.8-10.9,2.4c-1.9,0.9-3.7,2.2-5.2,3.7
			v-4.4h-19.1v83.8h19.9v-25.3c1.6,1.5,3.3,2.7,5.3,3.6c3.3,1.6,7,2.4,10.9,2.4c4.6,0,8.8-0.9,12.3-2.7c3.5-1.8,6.4-4.2,8.8-7.3
			c2.3-3,4.1-6.5,5.2-10.4c1.1-3.8,1.7-7.9,1.7-12c0-4.3-0.6-8.6-1.7-12.6C547.1,73.6,545.3,69.9,543,66.9z M530,89.8
			c0,2.2-0.2,4.5-0.7,6.6c-0.4,2.1-1.1,3.9-2.1,5.4c-0.9,1.5-2.2,2.7-3.8,3.6c-1.5,0.9-3.5,1.3-5.8,1.3c-2.3,0-4.2-0.5-5.7-1.4
			c-1.6-0.9-2.8-2.1-3.8-3.6c-1-1.5-1.7-3.3-2.2-5.4c-0.5-2.2-0.7-4.4-0.7-6.6c0-2.3,0.2-4.6,0.7-6.8c0.4-2.1,1.1-3.9,2.1-5.5
			c1-1.5,2.2-2.8,3.8-3.7c1.5-0.9,3.4-1.4,5.8-1.4c2.2,0,4.1,0.5,5.6,1.4c1.6,1,2.8,2.2,3.8,3.8c1,1.6,1.8,3.5,2.2,5.5
			C529.7,85.3,530,87.6,530,89.8z"/>
		<path class="st1" d="M610.9,65.6c-2.9-2.9-6.3-5.2-10.3-6.7c-4-1.6-8.5-2.4-13.4-2.4c-4.9,0-9.3,0.8-13.3,2.4
			c-4,1.6-7.4,3.8-10.3,6.7c-2.8,2.9-5.1,6.4-6.6,10.5c-1.5,4.1-2.3,8.6-2.3,13.6c0,4.9,0.8,9.5,2.3,13.5c1.5,4,3.8,7.6,6.6,10.5
			c2.8,2.9,6.3,5.1,10.3,6.7c3.9,1.5,8.4,2.3,13.3,2.3c4.9,0,9.4-0.8,13.3-2.3c4-1.5,7.5-3.8,10.3-6.7c2.8-2.9,5.1-6.4,6.6-10.5
			c1.5-4,2.3-8.6,2.3-13.5c0-4.9-0.8-9.5-2.3-13.6C616,72,613.7,68.5,610.9,65.6z M593.3,105.4c-1.6,0.9-3.6,1.4-6.1,1.4
			c-2.4,0-4.4-0.5-6-1.4c-1.6-0.9-2.8-2.1-3.8-3.7c-1-1.6-1.7-3.5-2.1-5.5c-0.4-2.1-0.6-4.3-0.6-6.6c0-2.2,0.2-4.5,0.6-6.7
			c0.4-2.1,1.1-3.9,2.1-5.5c1-1.5,2.2-2.8,3.8-3.7c1.5-0.9,3.5-1.4,6-1.4c2.4,0,4.4,0.5,6,1.4c1.6,1,2.9,2.2,3.9,3.7
			c1,1.6,1.7,3.4,2.1,5.5c0.4,2.2,0.7,4.4,0.7,6.7c0,2.2-0.2,4.5-0.7,6.6c-0.4,2-1.1,3.9-2.1,5.5
			C596.1,103.3,594.9,104.5,593.3,105.4z"/>
		<path class="st1" d="M700,74.8V56.5H688V40.3h-19.9v65.6c0,3.3,0.6,6,1.7,8.1c1.2,2.1,2.8,3.8,4.8,5c1.9,1.1,4.1,1.9,6.6,2.2
			c2.3,0.4,4.8,0.5,7.5,0.5c1.6,0,3.3,0,5-0.1c1.8-0.1,3.4-0.2,4.8-0.5l1.5-0.2v-16.4l-2.2,0.4c-0.7,0.1-1.4,0.2-2.2,0.3
			c-0.8,0.1-1.6,0.1-2.5,0.1c-3.1,0-4-0.6-4.2-0.8c-0.2-0.2-0.8-1.1-0.8-4.2V74.8H700z"/>
		<path class="st1" d="M663.3,56.5c-2.2,0-6.8,0.3-8.8,1c-2.1,0.7-4,1.6-5.8,2.8c-1.8,1.2-3.5,2.7-4.9,4.4c0,0-0.1,0.1-0.1,0.1v-6.7
			h-19.1v63h19.9V92.5c0-2.5,0.3-4.9,0.8-7.1c0.5-2,1.3-3.9,2.4-5.4c1.1-1.5,2.5-2.6,4.3-3.5c2.4-1.1,5.6-1.5,9.4-1.2l2,0.2V56.5z"
			/>
		<path class="st1" d="M340.5,68c-2.6-3.5-5.9-6.3-9.9-8.4c-4-2.1-8.7-3.1-14-3.1c-4.7,0-9.1,0.9-13.1,2.6c-3.9,1.7-7.3,4.1-10.2,7
			c-2.8,3-5.1,6.5-6.6,10.5c-1.5,4-2.3,8.4-2.3,13.1c0,4.8,0.8,9.3,2.2,13.3c1.5,4,3.6,7.6,6.4,10.5c2.8,2.9,6.2,5.2,10.2,6.8
			c3.9,1.6,8.4,2.4,13.3,2.4c7.1,0,13.2-1.6,18.2-4.9c4-2.6,7.2-6.5,9.6-11.8l1.2-2.6h-19.3l-0.5,0.4c-0.3,0.3-0.7,0.6-1.1,0.8
			c-2.1,1.4-4.5,2.1-7.5,2.1c-4.1,0-7.2-1-9.3-3c-1.8-1.7-2.9-4.6-3.3-8.4h42.6l0.1-1.7c0.3-4.8-0.1-9.4-1.2-13.8
			C344.9,75.5,343,71.5,340.5,68z M310.5,73.5c1.5-0.7,3.4-1.1,5.7-1.1c3.4,0,6,0.9,7.6,2.6c1.4,1.5,2.4,3.6,3.2,6.4h-22.2
			c0.1-0.5,0.2-1,0.4-1.6c0.4-1.2,1-2.4,1.9-3.5C307.8,75.2,309,74.3,310.5,73.5z"/>
		<path class="st1" d="M478.9,106.1V75.2c0-4-0.9-7.3-2.8-9.7c-1.8-2.4-4.1-4.3-6.9-5.7c-2.7-1.3-5.7-2.2-8.9-2.6
			c-6.7-0.9-13.1-0.9-19.5,0.4c-3.4,0.7-6.6,1.9-9.4,3.5c-2.8,1.7-5.2,3.9-7,6.6c-1.9,2.8-2.9,6.3-3.2,10.4l-0.1,1.9H441l0.2-1.6
			c0.3-2.7,1.1-4.6,2.5-5.6c1.5-1.1,3.7-1.7,6.5-1.7c1.3,0,2.6,0.1,3.8,0.3c1,0.2,1.9,0.5,2.7,0.9c0.7,0.4,1.2,1,1.6,1.7
			c0.4,0.8,0.6,1.9,0.6,3.4c0.1,1.4-0.4,2-0.8,2.4c-0.9,0.7-2.1,1.3-3.7,1.6c-1.7,0.4-3.8,0.8-6,1c-2.4,0.2-4.9,0.6-7.3,0.9
			c-2.5,0.4-5,0.9-7.5,1.6c-2.6,0.7-5,1.8-7,3.2c-2.1,1.5-3.8,3.4-5.2,5.8c-1.3,2.4-2,5.5-2,9.2c0,3.3,0.6,6.2,1.7,8.7
			c1.1,2.5,2.8,4.5,4.8,6.2c2,1.6,4.4,2.8,7.1,3.5c2.6,0.7,5.4,1.1,8.4,1.1c3.8,0,7.6-0.6,11.3-1.7c2.7-0.8,5.1-2.1,7.3-3.8
			c0.2,0.9,0.4,1.8,0.7,2.7l0.4,1.2h17.8l0-9.8C478.9,109.4,478.9,107.7,478.9,106.1z M458.9,93.3v3c0,0.8-0.1,2-0.3,3.5
			c-0.2,1.3-0.6,2.6-1.3,3.9c-0.7,1.2-1.8,2.3-3.3,3.2c-1.5,0.9-3.7,1.3-6.5,1.3c-1.2,0-2.3-0.1-3.5-0.3c-1-0.2-1.9-0.5-2.6-1
			c-0.7-0.4-1.2-1-1.5-1.7c-0.4-0.7-0.6-1.7-0.6-2.8c0-1.2,0.2-2.2,0.6-2.9c0.4-0.8,0.9-1.4,1.6-1.9c0.7-0.5,1.6-1,2.6-1.3
			c1.1-0.4,2.2-0.6,3.4-0.9c1.3-0.2,2.5-0.4,3.8-0.6c1.3-0.2,2.6-0.4,3.9-0.6c1.3-0.2,2.5-0.6,3.6-0.9
			C458.8,93.4,458.9,93.4,458.9,93.3z"/>
		<path class="st1" d="M233.2,89l-18-44.5h-28.4v76.6h20.5V79.4l17.3,41.7h16.3l17.3-42.2v42.2h20.5V44.6h-28.4L233.2,89z"/>
		<path class="st2" d="M71.6,67.3v22.1l11.2,11.2L94,89.5V67.3L82.8,56.2L71.6,67.3z"/>
		<path class="st2" d="M82.8,0C37.1,0,0,37.1,0,82.8c0,45.8,37.1,82.8,82.8,82.8c45.7,0,82.8-37.1,82.8-82.8
			C165.7,37.1,128.6,0,82.8,0z M131.3,138.4l-8.7,6.4l-8.7-6.4v-21.9l-11.2-11.2l-11.2,11.2v21.9l-8.7,6.4l-8.7-6.4v-21.9
			l-11.2-11.2l-11.2,11.2v21.9l-8.7,6.4l-8.7-6.4v-29.1l19.9-19.9V60.1l19.9-19.9V15l8.7-6.4l8.7,6.4v25.3l19.9,19.9v29.3l19.9,19.9
			V138.4z"/>
	</g>
</g>
</svg>
