<?xml version="1.0" encoding="UTF-8"?>
<svg id="Layer_1" data-name="Layer 1" xmlns="http://www.w3.org/2000/svg" xmlns:xlink="http://www.w3.org/1999/xlink" viewBox="0 0 280 280">
  <defs>
    <style>
      .cls-1 {
        clip-path: url(#clippath);
      }

      .cls-2 {
        fill: none;
      }

      .cls-2, .cls-3, .cls-4, .cls-5 {
        stroke-width: 0px;
      }

      .cls-6 {
        mask: url(#mask);
      }

      .cls-7 {
        mask: url(#mask-2);
      }

      .cls-8 {
        mask: url(#mask-1);
      }

      .cls-4 {
        fill: #e31b48;
      }

      .cls-5 {
        fill: #fff;
      }
    </style>
    <clipPath id="clippath">
      <rect class="cls-2" width="280" height="280"/>
    </clipPath>
    <mask id="mask" x="89.16" y="231.92" width="35.66" height="48.24" maskUnits="userSpaceOnUse">
      <g id="mask0_802_7731" data-name="mask0 802 7731">
        <path class="cls-5" d="m89.16,231.92h35.66v48.24h-35.66v-48.24Z"/>
      </g>
    </mask>
    <mask id="mask-1" x="163.04" y="231.92" width="35.67" height="48.24" maskUnits="userSpaceOnUse">
      <g id="mask1_802_7731" data-name="mask1 802 7731">
        <path class="cls-5" d="m163.04,231.92h35.67v48.24h-35.67v-48.24Z"/>
      </g>
    </mask>
    <mask id="mask-2" x="262.39" y="223" width="17.62" height="45.85" maskUnits="userSpaceOnUse">
      <g id="mask2_802_7731" data-name="mask2 802 7731">
        <path class="cls-5" d="m262.39,223h17.61v45.85h-17.61v-45.85Z"/>
      </g>
    </mask>
  </defs>
  <g class="cls-1">
    <g>
      <path class="cls-3" d="m25.34,250.43l-9.84-24.26H0v41.76h11.19v-22.75l9.43,22.75h8.91l9.43-23.01v23.01h11.19v-41.76h-15.52l-9.3,24.26Z"/>
      <g class="cls-6">
        <path class="cls-3" d="m113.92,236.03c-.82-.87-1.73-1.56-2.74-2.06-1.74-.86-3.78-1.29-6.04-1.29-2.4,0-4.57.48-6.43,1.42-1.86.95-3.44,2.23-4.69,3.81-1.24,1.58-2.19,3.41-2.83,5.46-.63,2.03-.96,4.16-.96,6.34,0,2.29.27,4.5.82,6.55.55,2.1,1.44,3.97,2.65,5.55,1.21,1.6,2.79,2.88,4.68,3.8,1.88.92,4.13,1.39,6.7,1.39,2.1,0,4.12-.44,6.02-1.31,1.07-.49,2.02-1.14,2.83-1.93v1.52c.04,2.06-.45,3.77-1.46,5.08-.96,1.25-2.49,1.87-4.69,1.87-1.41,0-2.67-.28-3.73-.85-.96-.52-1.6-1.44-1.95-2.85l-.18-.75h-10.67l.07,1.06c.13,2.01.71,3.77,1.7,5.22.98,1.43,2.21,2.61,3.69,3.52,1.43.88,3.05,1.54,4.8,1.96,1.72.41,3.43.62,5.08.62,3.85,0,6.98-.54,9.31-1.59,2.34-1.07,4.17-2.39,5.44-3.95,1.26-1.55,2.1-3.26,2.48-5.08.37-1.73.55-3.3.55-4.65v-31.32h-10.44v2.47Zm-1.47,7.89c.52.82.9,1.77,1.12,2.84.23,1.11.35,2.32.35,3.59,0,1.07-.14,2.1-.43,3.07-.28.95-.7,1.8-1.25,2.53-.54.73-1.21,1.29-2.04,1.72-.81.43-1.78.64-2.86.64-1.18,0-2.16-.24-2.92-.72-.79-.5-1.43-1.15-1.91-1.94-.5-.82-.86-1.75-1.06-2.78-.21-1.07-.32-2.18-.32-3.28s.12-2.22.38-3.24c.24-.99.63-1.86,1.16-2.61.52-.73,1.17-1.31,1.93-1.74.75-.42,1.67-.63,2.75-.63,1.28,0,2.34.23,3.14.69.83.46,1.47,1.07,1.97,1.86Z"/>
      </g>
      <g class="cls-8">
        <path class="cls-3" d="m194.36,238.34c-1.3-1.7-2.94-3.07-4.91-4.1-1.97-1.03-4.34-1.56-7.03-1.56-2.14,0-4.14.43-5.94,1.29-1.05.5-2,1.17-2.85,2.02v-2.43h-10.43v45.72h10.88v-13.81c.85.8,1.81,1.45,2.87,1.96,1.82.88,3.83,1.32,5.97,1.32,2.53,0,4.78-.5,6.69-1.49,1.9-.98,3.5-2.32,4.78-3.97,1.26-1.64,2.21-3.54,2.83-5.66.61-2.08.92-4.29.92-6.54,0-2.37-.3-4.68-.91-6.88-.62-2.21-1.58-4.19-2.86-5.88Zm-7.1,12.5c0,1.22-.12,2.44-.36,3.63-.22,1.12-.61,2.12-1.14,2.95-.52.8-1.21,1.47-2.06,1.97-.82.49-1.89.74-3.16.74s-2.29-.25-3.13-.74c-.87-.51-1.55-1.15-2.08-1.97-.54-.83-.93-1.83-1.18-2.96-.26-1.18-.39-2.4-.39-3.61s.12-2.51.35-3.69c.23-1.13.62-2.14,1.15-2.99.52-.83,1.21-1.51,2.07-2.04.82-.5,1.87-.76,3.15-.76s2.26.25,3.08.76c.85.53,1.55,1.22,2.1,2.07.56.88.96,1.89,1.21,3.03.25,1.18.38,2.4.38,3.61Z"/>
      </g>
      <path class="cls-3" d="m231.4,237.65c-1.56-1.58-3.45-2.81-5.64-3.67-2.18-.86-4.63-1.29-7.29-1.29s-5.1.44-7.25,1.3c-2.16.86-4.05,2.09-5.6,3.67-1.55,1.57-2.77,3.51-3.61,5.74-.83,2.21-1.25,4.7-1.25,7.4s.42,5.18,1.26,7.36c.84,2.21,2.05,4.13,3.6,5.7,1.55,1.58,3.44,2.8,5.61,3.64,2.15.84,4.59,1.26,7.24,1.26s5.11-.42,7.28-1.25c2.19-.84,4.09-2.07,5.64-3.65,1.55-1.57,2.77-3.49,3.61-5.7.83-2.19,1.25-4.67,1.25-7.36s-.42-5.18-1.25-7.4c-.84-2.23-2.05-4.16-3.61-5.74Zm-9.62,21.73c-.87.49-1.98.75-3.3.75s-2.41-.25-3.25-.74c-.87-.5-1.55-1.16-2.07-2.01-.54-.88-.93-1.89-1.15-3-.24-1.16-.36-2.37-.36-3.59s.12-2.45.36-3.63c.22-1.12.61-2.13,1.15-2.99.53-.84,1.21-1.5,2.08-2.03.85-.51,1.94-.76,3.24-.76s2.42.26,3.29.77c.89.53,1.58,1.19,2.11,2.02.54.85.93,1.86,1.15,2.99.23,1.18.35,2.4.35,3.63s-.12,2.43-.35,3.59c-.23,1.11-.62,2.12-1.15,3-.53.85-1.21,1.51-2.1,2.01Z"/>
      <g class="cls-7">
        <path class="cls-3" d="m280.01,242.68v-10h-6.51v-8.83h-10.88v35.76c0,1.79.31,3.27.93,4.42.63,1.16,1.5,2.08,2.6,2.71,1.04.6,2.25,1.01,3.61,1.22,1.27.19,2.64.29,4.07.29.89,0,1.8-.02,2.74-.06.98-.05,1.84-.13,2.62-.26l.83-.14v-8.94l-1.18.24c-.38.08-.79.14-1.21.17-.43.03-.89.05-1.35.05-1.71,0-2.2-.35-2.31-.46-.11-.11-.46-.6-.46-2.31v-13.86h6.51Z"/>
      </g>
      <path class="cls-3" d="m260,232.68c-1.22,0-3.69.19-4.83.55-1.12.36-2.19.88-3.19,1.53-1,.66-1.89,1.46-2.66,2.38-.02.03-.04.05-.06.08v-3.66h-10.44v34.37h10.88v-15.59c0-1.39.14-2.68.41-3.85.26-1.11.7-2.1,1.31-2.92.59-.82,1.37-1.44,2.35-1.92,1.3-.62,3.07-.84,5.14-.63l1.08.11v-10.44Z"/>
      <path class="cls-3" d="m83.9,238.98c-1.4-1.91-3.21-3.46-5.39-4.59-2.18-1.13-4.76-1.71-7.66-1.71-2.59,0-4.99.47-7.12,1.4-2.14.93-4.01,2.21-5.55,3.83-1.55,1.61-2.76,3.55-3.6,5.75-.83,2.19-1.25,4.58-1.25,7.12s.41,5.05,1.22,7.23c.81,2.2,1.99,4.12,3.5,5.72,1.51,1.6,3.38,2.85,5.55,3.72,2.15.86,4.6,1.29,7.26,1.29,3.85,0,7.19-.9,9.94-2.66,2.18-1.41,3.94-3.57,5.22-6.41l.64-1.4h-10.55l-.27.23c-.18.15-.37.3-.59.45-1.13.79-2.46,1.17-4.07,1.17-2.22,0-3.93-.56-5.08-1.66-.99-.95-1.59-2.49-1.82-4.56h23.23l.06-.93c.17-2.6-.05-5.12-.66-7.52-.62-2.41-1.63-4.59-3.01-6.48Zm-16.39,3c.8-.4,1.84-.61,3.09-.61,1.87,0,3.25.48,4.12,1.43.75.82,1.33,1.99,1.73,3.48h-12.1c.05-.27.13-.56.22-.87.19-.66.53-1.31,1.01-1.91.47-.6,1.12-1.11,1.93-1.52Z"/>
      <path class="cls-3" d="m159.38,259.74v-16.85c0-2.17-.51-3.96-1.51-5.32-.97-1.31-2.23-2.35-3.75-3.09-1.46-.71-3.1-1.2-4.87-1.44-3.65-.5-7.16-.5-10.63.2-1.88.37-3.59,1.01-5.11,1.9-1.54.91-2.83,2.13-3.83,3.63-1.01,1.52-1.6,3.43-1.73,5.69l-.06,1.06h10.85l.08-.9c.14-1.46.6-2.49,1.37-3.06.82-.62,2.01-.93,3.54-.93.74,0,1.43.04,2.07.14.57.09,1.04.25,1.45.49.38.22.67.54.9.95.23.41.34,1.02.35,1.85.03.79-.24,1.11-.45,1.29-.47.38-1.14.69-2,.9-.94.23-2.05.42-3.3.54-1.33.13-2.67.3-4,.51-1.36.21-2.74.51-4.09.87-1.42.38-2.7.96-3.82,1.74-1.15.8-2.09,1.87-2.81,3.19-.72,1.33-1.09,3.01-1.09,5.01,0,1.81.31,3.41.94,4.75.63,1.35,1.51,2.48,2.63,3.36,1.1.87,2.4,1.52,3.86,1.93,1.42.4,2.96.6,4.59.6,2.1,0,4.18-.31,6.18-.92,1.46-.44,2.8-1.13,4-2.06.11.51.24,1.01.4,1.49l.22.67h9.74v-5.32c-.1-1.07-.13-1.98-.13-2.87Zm-10.88-6.96v1.64c0,.46-.05,1.09-.15,1.88-.09.71-.33,1.41-.72,2.12-.37.66-.98,1.24-1.79,1.74-.8.49-1.99.73-3.55.73-.65,0-1.28-.05-1.89-.17-.54-.1-1.01-.27-1.41-.52-.36-.22-.63-.52-.85-.91-.21-.39-.32-.91-.32-1.54,0-.67.11-1.2.32-1.6.22-.41.51-.75.88-1.02.39-.29.86-.52,1.4-.7.6-.19,1.22-.35,1.84-.47.69-.12,1.38-.22,2.07-.31.74-.08,1.44-.19,2.11-.32.69-.13,1.35-.31,1.94-.5.03-.01.07-.02.1-.04Z"/>
      <path class="cls-4" d="m197.13,162.47l-10.22,7.54-10.22-7.54v-25.67l-13.11-13.11-13.11,13.11v25.67l-10.24,7.54-10.24-7.54v-25.67l-13.11-13.11-13.11,13.11v25.67l-10.22,7.54-10.22-7.54v-34.13l23.31-23.32v-34.44l23.33-23.33v-29.66l10.22-7.54,10.22,7.54v29.66l23.33,23.33v34.36l23.39,23.4v34.13ZM140.23,0C86.53,0,43,43.53,43,97.24s43.53,97.23,97.23,97.23,97.24-43.53,97.24-97.23S193.94,0,140.23,0Z"/>
      <path class="cls-4" d="m127.08,80.04v25.95l13.15,13.15,13.07-13.07v-26.03l-13.11-13.11-13.11,13.11Z"/>
    </g>
  </g>
</svg>